<?xml version="1.0" encoding="UTF-8"?>
<svg xmlns="http://www.w3.org/2000/svg" xmlns:xlink="http://www.w3.org/1999/xlink" width="193pt" height="193pt" viewBox="0 0 193 193" version="1.1">
<g id="surface1">
<path style=" stroke:none;fill-rule:evenodd;fill:rgb(100%,100%,100%);fill-opacity:1;" d="M 0 0.242188 L 192.757813 0.242188 L 192.757813 193 L 0 193 L 0 0.242188 "/>
<path style=" stroke:none;fill-rule:evenodd;fill:rgb(0%,32.199097%,61.199951%);fill-opacity:1;" d="M 25.90625 84.117188 C 22.035156 86.914063 19.53125 91.484375 19.53125 96.621094 C 19.53125 105.121094 26.417969 112.011719 34.917969 112.011719 C 35.058594 112.011719 35.203125 112.007813 35.347656 112.003906 L 26.34375 98.59375 C 26.039063 98.207031 25.851563 97.71875 25.851563 97.183594 C 25.851563 95.929688 26.871094 94.914063 28.125 94.914063 L 39.875 94.914063 L 29.128906 78.882813 C 30.953125 78.285156 32.890625 77.960938 34.917969 77.960938 C 45.222656 77.960938 53.578125 86.316406 53.578125 96.621094 C 53.578125 103.996094 49.300781 110.371094 43.09375 113.402344 L 34.300781 100.480469 L 45.9375 100.480469 C 45.929688 102.257813 44.5 103.6875 42.734375 103.6875 L 40.589844 103.691406 C 40.410156 103.691406 40.203125 103.601563 40.078125 103.542969 C 40.203125 103.613281 40.398438 103.734375 40.5 103.871094 L 44.035156 109.015625 C 47.839844 106.214844 50.304688 101.707031 50.304688 96.621094 C 50.304688 88.121094 43.414063 81.234375 34.917969 81.234375 C 34.820313 81.234375 34.722656 81.234375 34.628906 81.238281 L 43.574219 94.585938 C 43.59375 94.613281 43.613281 94.644531 43.632813 94.671875 C 43.855469 95.023438 43.988281 95.441406 43.988281 95.890625 C 43.988281 97.144531 42.96875 98.160156 41.714844 98.160156 C 41.679688 98.160156 41.640625 98.160156 41.605469 98.160156 L 29.941406 98.160156 L 40.824219 114.328125 C 38.96875 114.949219 36.980469 115.28125 34.917969 115.28125 C 24.613281 115.28125 16.257813 106.929688 16.257813 96.621094 C 16.257813 89.191406 20.597656 82.777344 26.882813 79.773438 L 35.53125 92.558594 L 23.898438 92.558594 C 23.90625 90.78125 25.335938 89.351563 27.097656 89.351563 L 29.246094 89.347656 C 29.425781 89.351563 29.632813 89.4375 29.753906 89.5 C 29.632813 89.429688 29.4375 89.304688 29.335938 89.171875 L 25.90625 84.117188 "/>
<path style=" stroke:none;fill-rule:evenodd;fill:rgb(0%,32.199097%,61.199951%);fill-opacity:1;" d="M 126.261719 101.605469 C 126.261719 105.949219 128.976563 108.878906 132.953125 108.878906 C 137.273438 108.878906 140.003906 106.09375 140.003906 101.652344 C 140.003906 97.644531 137.042969 94.734375 132.953125 94.734375 C 129.078125 94.734375 126.261719 97.652344 126.261719 101.605469 Z M 143.585938 101.605469 C 143.585938 107.792969 139.285156 111.96875 133 111.96875 C 126.984375 111.96875 122.679688 107.621094 122.679688 101.605469 C 122.679688 96 127.152344 91.644531 133 91.644531 C 139.160156 91.644531 143.585938 95.828125 143.585938 101.605469 "/>
<path style=" stroke:none;fill-rule:evenodd;fill:rgb(0%,32.199097%,61.199951%);fill-opacity:1;" d="M 102.226563 96.546875 C 99.664063 95.222656 97.273438 94.484375 95.5625 94.484375 C 93.601563 94.484375 92.246094 95.28125 92.246094 96.554688 C 92.246094 99.148438 103.390625 101.242188 103.390625 106.21875 C 103.390625 109.984375 100.761719 111.882813 96.417969 111.882813 C 93.613281 111.882813 91.222656 111.40625 88.222656 110.128906 L 88.222656 106.265625 C 90.894531 107.96875 93.945313 108.871094 95.832031 108.871094 C 97.765625 108.78125 99.488281 107.988281 99.488281 106.351563 C 99.488281 103.496094 88.238281 101.957031 88.238281 96.488281 C 88.238281 93.53125 90.695313 91.472656 95.335938 91.472656 C 97.453125 91.472656 99.789063 91.984375 102.226563 93.042969 L 102.226563 96.546875 "/>
<path style=" stroke:none;fill-rule:evenodd;fill:rgb(0%,32.199097%,61.199951%);fill-opacity:1;" d="M 69.027344 94.863281 L 82.171875 94.863281 L 82.171875 98.121094 L 69.015625 98.121094 C 68.96875 103.800781 74.035156 108.140625 77.742188 108.140625 L 84.882813 108.140625 L 84.882813 111.398438 L 78.585938 111.398438 C 70.832031 111.398438 64.871094 104.757813 64.871094 96.554688 C 64.871094 88.347656 70.832031 81.710938 78.585938 81.710938 L 84.882813 81.710938 L 84.882813 84.96875 L 77.742188 84.96875 C 74.0625 84.96875 69.054688 89.472656 69.027344 94.863281 "/>
<path style=" stroke:none;fill-rule:evenodd;fill:rgb(0%,32.199097%,61.199951%);fill-opacity:1;" d="M 172.921875 111.398438 L 176.496094 111.398438 L 176.496094 99.304688 C 176.496094 94.035156 173 91.457031 168.546875 91.457031 C 165.800781 91.457031 163.054688 92.382813 161.785156 94.917969 C 160.074219 91.996094 157.765625 91.457031 155.660156 91.457031 C 153.472656 91.457031 150.886719 92.265625 149.933594 94.304688 L 149.851563 94.304688 L 149.851563 92.023438 L 146.273438 92.023438 L 146.273438 111.398438 L 149.851563 111.398438 L 149.851563 99.84375 C 149.851563 96.496094 152.078125 94.6875 155.0625 94.6875 C 157.527344 94.6875 159.597656 96.226563 159.597656 99.6875 L 159.597656 111.398438 L 163.175781 111.398438 L 163.175781 99.84375 C 163.175781 96.496094 165.402344 94.6875 168.386719 94.6875 C 170.851563 94.6875 172.921875 96.226563 172.921875 99.6875 L 172.921875 111.398438 "/>
<path style=" stroke:none;fill-rule:evenodd;fill:rgb(0%,32.199097%,61.199951%);fill-opacity:1;" d="M 114.5 101.628906 C 114.5 101.628906 118.367188 106.09375 120.992188 108.804688 C 121.851563 109.804688 122.808594 110.769531 123.863281 111.691406 L 121.390625 111.691406 C 121.390625 111.691406 119.886719 111.671875 119.019531 111.320313 C 117.796875 110.824219 116.460938 109.105469 116.460938 109.105469 L 109.992188 101.636719 L 117.386719 92.023438 L 122.097656 92.023438 L 114.5 101.628906 "/>
<path style=" stroke:none;fill-rule:evenodd;fill:rgb(0%,32.199097%,61.199951%);fill-opacity:1;" d="M 109.847656 111.398438 L 106.355469 111.398438 L 106.355469 81.710938 L 109.847656 81.710938 L 109.847656 111.398438 "/>
</g>
</svg>
